<?xml version="1.0" encoding="UTF-8"?> <svg xmlns="http://www.w3.org/2000/svg" xmlns:xlink="http://www.w3.org/1999/xlink" version="1.1" id="Layer_1" x="0px" y="0px" viewBox="0 0 642 320" style="enable-background:new 0 0 642 320;" xml:space="preserve"> <style type="text/css"> .st0{fill:#158864;} </style> <g> <path class="st0" d="M257.2,32.3h-7.1l-74.3,186h6h2.1h18.2l12.6-34.1h75.8l12.6,34.1h18.2h1.1h7L257.2,32.3z M282.2,161.4h-59.1 l30.6-76.3L282.2,161.4z"></path> <polygon class="st0" points="315.2,32.4 315.2,37.1 315.2,39.5 315.2,55.2 368.7,55.2 368.7,218.3 385.9,218.3 388.1,218.3 393.4,218.3 393.4,55.2 446.9,55.2 446.9,39.5 446.9,36 446.9,32.4 "></polygon> <g> <polygon class="st0" points="64.2,283.8 52.9,261.5 45.5,261.5 45.5,291.9 51.3,291.9 51.3,269.9 62.6,291.9 70,291.9 70,261.5 64.2,261.5 "></polygon> <polygon class="st0" points="121.7,261.5 119.6,261.5 119.6,292 121.7,292 125.6,292 141,292 141,286.4 125.6,286.4 125.6,279.6 138.5,279.6 138.5,274 125.6,274 125.6,267 141,267 141,261.5 125.6,261.5 "></polygon> <polygon class="st0" points="190.5,267 199.2,267 199.2,292 205.2,292 205.2,267 213.9,267 213.9,261.5 190.5,261.5 "></polygon> <polygon class="st0" points="290.9,281.8 284.8,261.5 279.9,261.5 273.8,281.8 269.7,261.5 263.5,261.5 270.9,292 276.5,292 282.5,270.6 288.1,292 293.8,292 301.2,261.5 295,261.5 "></polygon> <path class="st0" d="M368.5,262.5c-1.8-0.9-3.8-1.4-6.1-1.4s-4.4,0.5-6.1,1.4c-1.8,0.9-3.1,2.2-4.1,3.9c-1,1.7-1.5,3.7-1.5,5.9 v8.6c0,2.2,0.5,4.2,1.5,5.9c1,1.7,2.3,3,4.1,3.9c1.8,0.9,3.8,1.4,6.1,1.4s4.4-0.5,6.1-1.4c1.8-0.9,3.1-2.2,4.1-3.9 c1-1.7,1.5-3.7,1.5-5.9v-8.6c0-2.2-0.5-4.2-1.5-5.9C371.7,264.8,370.3,263.5,368.5,262.5z M367.8,281.2c0,1.1-0.2,2-0.7,2.8 c-0.4,0.8-1.1,1.4-1.9,1.9c-0.8,0.4-1.8,0.7-2.9,0.7s-2-0.2-2.9-0.7c-0.8-0.4-1.5-1.1-1.9-1.9c-0.4-0.8-0.7-1.7-0.7-2.8v-8.9 c0-1.1,0.2-2,0.7-2.8c0.4-0.8,1.1-1.4,1.9-1.9c0.8-0.4,1.8-0.7,2.9-0.7s2,0.2,2.9,0.7c0.8,0.4,1.5,1.1,1.9,1.9 c0.4,0.8,0.7,1.7,0.7,2.8V281.2z"></path> <path class="st0" d="M442.3,278.6c1.3-0.8,2.4-1.8,3.1-3.2c0.7-1.4,1.1-3,1.1-4.8c0-1.8-0.4-3.4-1.1-4.8c-0.7-1.4-1.8-2.4-3.1-3.2 c-1.3-0.8-2.9-1.1-4.6-1.1h-8H426h-2.4V292h6v-12.3h3.7l7.2,12.3h7.3l-7.6-12.6C440.9,279.2,441.6,278.9,442.3,278.6z M429.7,267 h7.5c0.6,0,1.2,0.1,1.6,0.4s0.8,0.7,1.1,1.3c0.3,0.5,0.4,1.2,0.4,1.9c0,0.7-0.1,1.3-0.4,1.9c-0.3,0.5-0.6,1-1.1,1.3 s-1,0.4-1.6,0.4h-7.5V267z"></path> <polygon class="st0" points="521.4,261.5 513.8,261.5 503.4,276.6 503.4,261.5 497.4,261.5 497.4,292 503.4,292 503.4,285.4 508,279.3 515.6,292 522.7,292 511.9,274.1 "></polygon> <path class="st0" d="M595.1,278.1c-0.9-1.2-2-2.1-3.4-2.6c-1.4-0.5-3-1-5.1-1.4c-0.1,0-0.2,0-0.3-0.1c-0.1,0-0.2,0-0.3-0.1 c-0.1,0-0.1,0-0.2,0c-0.1,0-0.1,0-0.2,0c-1.4-0.3-2.5-0.5-3.3-0.8c-0.8-0.2-1.4-0.6-2-1.1c-0.5-0.5-0.8-1.2-0.8-2.1v0 c0-1,0.5-1.9,1.5-2.4c1-0.6,2.4-0.9,4.3-0.9c1.2,0,2.5,0.2,3.9,0.7c1.3,0.4,2.6,1.1,3.9,1.9l2.5-4.9c-1-0.7-2.1-1.2-3.3-1.7 c-1.1-0.5-2.3-0.8-3.5-1.1c-1.2-0.3-2.4-0.4-3.5-0.4c-2.5,0-4.6,0.4-6.4,1.1c-1.8,0.7-3.1,1.8-4,3.2s-1.4,3.1-1.4,5.1v0 c0,2.2,0.5,3.9,1.5,5.2c1,1.2,2.2,2.1,3.6,2.5c1.4,0.5,3.2,0.9,5.3,1.2l0.5,0.1c0,0,0.1,0,0.1,0c0,0,0.1,0,0.1,0 c1.2,0.2,2.2,0.4,3,0.6s1.4,0.6,1.9,1c0.5,0.5,0.7,1.1,0.7,1.9v0c0,1.2-0.5,2.1-1.6,2.7c-1.1,0.6-2.6,1-4.6,1 c-1.7,0-3.4-0.3-5-0.8c-1.6-0.5-3-1.3-4.3-2.2l-2.8,4.7c1,0.8,2.2,1.5,3.4,2c1.3,0.6,2.7,1,4.1,1.3c1.5,0.3,2.2,0.4,2.2,0.4 s0.8,0,2.3,0c2.6,0,4.8-0.4,6.6-1.1c1.8-0.7,3.2-1.8,4.2-3.2c1-1.4,1.4-3,1.4-5v0C596.5,280.9,596,279.3,595.1,278.1z"></path> </g> <g> <path class="st0" d="M545.6,27.7c-52.6,0-95.5,42-95.5,95.8c0,53.8,42,94.8,94.5,94.8c52.6,0,95.5-42,95.5-95.8 C640.1,69.4,598.1,27.7,545.6,27.7z M545.6,194.3c-39.4,0-69.8-30.3-69.8-71.8c0-39.4,29.8-70.8,68.8-70.8 c39.4,0,69.8,30.3,69.8,71.8C614.3,163.2,584.5,194.3,545.6,194.3z"></path> <path class="st0" d="M147.5,172.7c-12.4,13.4-30,21.6-50,21.6c-39.4,0-69.8-30.3-69.8-71.8c0-39.4,29.8-70.8,68.8-70.8 c20.4,0,38.4,8.1,51,21.7L165,55.8c-17.1-17.4-41-28.1-67.6-28.1c-52.6,0-95.5,42-95.5,95.8c0,53.8,42,94.8,94.5,94.8 c26.7,0,50.9-10.8,68.2-28.5L147.5,172.7z"></path> </g> </g> </svg> 