<svg xmlns="http://www.w3.org/2000/svg" width="1200" height="492.48" viewBox="0.226 -0.019 491.04 201.585"><path d="M70.419 0c-6.951 -0.157 -14.133 0.655 -21.488 2.493C14.92 10.988 -23.15 54.738 18.421 105.183l24.812 30.035 7.004 8.548c4.701 5.589 12.393 5.49 18.045 0.831 5.679 -4.683 7.293 -12.361 2.611 -18.045a1552.575 1552.575 0 0 0 -2.849 -3.442h0.118c-1.793 -2.157 -2.182 -2.52 -4.035 -4.749a6578.257 6578.257 0 0 1 -19.233 -23.269c-18.049 -21.906 -9.995 -48.968 14.484 -64.344 21.569 -13.549 61.149 -8.709 74.792 13.533C125.577 18.921 100.542 0.681 70.419 0zm4.986 52.947c-3.207 -0.11 -6.555 1.113 -9.378 3.442 -5.689 4.687 -7.289 12.375 -2.611 18.045 0.009 0.015 0.573 0.717 1.543 1.899 10.761 12.927 25.049 30.273 25.049 30.273 18.054 21.906 9.996 48.849 -14.483 64.227 -21.564 13.543 -61.149 8.694 -74.791 -13.533 10.575 31.198 46.019 51.594 85.239 41.788 34.019 -8.511 72.079 -52.135 30.51 -102.571l-29.085 -35.139 -3.325 -4.155c-2.35 -2.795 -5.459 -4.166 -8.667 -4.275z" fill="#007cc2"/><path d="M203.618 23.981c-21.535 0 -46.181 11.107 -46.18 37.869 0 25.477 20.262 32.628 40.363 37.515 20.343 4.887 40.482 7.717 40.482 24.693 0 16.725 -17.229 19.826 -29.916 19.826 -16.749 0 -32.529 -6.093 -33.241 -25.642h-20.301c1.187 32.931 24.593 44.993 52.353 44.993 25.134 0 52.71 -10.248 52.71 -41.907 0 -25.733 -20.144 -32.979 -40.482 -37.869 -18.9 -4.887 -40.482 -7.455 -40.482 -23.151 0 -13.382 14.151 -16.977 26.355 -16.977 13.41 0 27.285 5.333 28.73 22.318h20.301c-1.671 -32.422 -23.411 -41.669 -50.692 -41.669zm117.291 0c-27.528 0 -51.285 11.587 -52.472 44.518h20.301c0.959 -19.555 13.638 -25.168 30.867 -25.168 12.93 0 27.543 3.039 27.543 22.082 0 16.468 -19.051 14.954 -41.551 19.588 -21.051 4.373 -41.907 10.845 -41.907 40.957 0 26.507 18.453 37.277 40.957 37.277 17.214 0 32.205 -6.51 43.449 -20.657 0 14.403 6.801 20.657 17.333 20.657 6.453 0 10.893 -1.368 14.483 -3.681v-16.977c-2.631 1.03 -4.502 1.305 -6.173 1.305 -6.459 0 -6.411 -4.539 -6.411 -14.839V60.545c-0.001 -31.133 -24.162 -36.565 -46.419 -36.565zm106.37 0c-21.535 0 -46.18 11.107 -46.18 37.869 0 25.477 20.385 32.628 40.482 37.515 20.348 4.887 40.482 7.717 40.482 24.693 0 16.725 -17.233 19.826 -29.917 19.826 -16.753 0 -32.529 -6.093 -33.24 -25.642h-20.419c1.191 32.931 24.717 44.993 52.472 44.993 25.12 0 52.591 -10.248 52.591 -41.907 0 -25.733 -20.145 -32.979 -40.482 -37.869 -18.895 -4.887 -40.363 -7.455 -40.363 -23.151 0 -13.382 14.031 -16.977 26.235 -16.977 13.395 0 27.281 5.333 28.73 22.318h20.419c-1.666 -32.422 -23.519 -41.669 -50.811 -41.669zM346.908 91.411v22.437c0 12.094 -10.947 30.035 -37.751 30.035 -12.432 0 -23.981 -5.171 -23.981 -19.589 0 -16.207 11.539 -21.288 24.93 -23.861 13.642 -2.569 28.91 -2.848 36.801 -9.021zm-201.461 58.29c-4.293 0 -7.953 3.333 -7.953 7.835 0 4.521 3.661 7.835 7.953 7.835 4.254 0 7.834 -3.315 7.834 -7.835 0 -4.502 -3.58 -7.835 -7.835 -7.835zm337.865 0c-4.307 0 -7.953 3.339 -7.953 7.835 0 4.527 3.647 7.835 7.953 7.835 4.251 0 7.953 -3.309 7.953 -7.835 0 -4.497 -3.705 -7.835 -7.953 -7.835zm-337.866 1.305c3.524 0 6.291 2.811 6.291 6.531 0 3.751 -2.769 6.531 -6.291 6.531 -3.591 0 -6.411 -2.778 -6.411 -6.531 0 -3.718 2.821 -6.53 6.411 -6.53zm337.866 0c3.524 0 6.411 2.817 6.411 6.531 0 3.757 -2.887 6.531 -6.411 6.531 -3.595 0 -6.291 -2.773 -6.291 -6.531 0 -3.714 2.697 -6.53 6.291 -6.53zm-340.953 2.019v9.021h1.425v-3.917h1.543l2.373 3.917h1.544l-2.611 -4.035c1.339 -0.152 2.373 -0.754 2.373 -2.373 0 -1.785 -1.059 -2.611 -3.206 -2.611h-3.443zm337.985 0v9.021h1.305v-3.917h1.662l2.373 3.917h1.544l-2.611 -4.035c1.315 -0.147 2.373 -0.754 2.373 -2.373 0 -1.785 -1.073 -2.611 -3.206 -2.611h-3.442zm-336.56 1.186h1.899c0.939 0 1.899 0.185 1.899 1.305 0 1.377 -0.964 1.425 -2.137 1.425h-1.662v-2.731zm337.866 0h1.899c0.959 0 2.019 0.181 2.019 1.305 0 1.377 -1.092 1.425 -2.255 1.425h-1.662v-2.731z"/></svg>