<?xml version="1.0" standalone="no"?>
<!DOCTYPE svg PUBLIC "-//W3C//DTD SVG 20010904//EN"
 "http://www.w3.org/TR/2001/REC-SVG-20010904/DTD/svg10.dtd">
<svg version="1.0" xmlns="http://www.w3.org/2000/svg"
 width="192.000000pt" height="192.000000pt" viewBox="0 0 192.000000 192.000000"
 preserveAspectRatio="xMidYMid meet">
<metadata>
Created by potrace 1.14, written by Peter Selinger 2001-2017
</metadata>
<g transform="translate(0.000000,192.000000) scale(0.100000,-0.100000)"
fill="#000000" stroke="none">
<path d="M854 1880 c-72 -35 -111 -79 -172 -194 -24 -44 -67 -126 -96 -181
-56 -106 -86 -161 -211 -395 -43 -80 -101 -188 -128 -240 -28 -52 -75 -140
-104 -195 -109 -205 -125 -241 -130 -304 -6 -68 12 -175 33 -192 8 -6 14 -17
14 -23 0 -24 81 -97 135 -122 122 -56 241 -17 343 113 17 22 32 43 32 46 0 4
98 174 120 207 6 8 16 26 22 40 7 14 15 27 18 30 3 3 14 22 25 43 34 65 73
105 131 133 47 23 63 26 114 21 172 -15 330 -168 397 -382 51 -163 94 -226
181 -262 157 -65 332 76 332 268 0 98 -85 270 -188 381 -143 153 -317 232
-507 229 -49 0 -105 -5 -122 -10 -18 -5 -33 -8 -33 -5 0 2 -25 -6 -55 -17 -62
-23 -73 -20 -131 38 -62 62 -87 200 -62 340 l9 52 67 21 c136 41 256 45 371
10 66 -19 167 -74 216 -117 14 -13 30 -23 35 -23 12 0 13 23 1 36 -5 5 -34 59
-66 119 -55 106 -118 224 -195 368 -69 130 -152 189 -270 194 -54 1 -75 -3
-126 -27z"/>
</g>
</svg>
