<svg xmlns="http://www.w3.org/2000/svg" viewBox="0 0 78.46 78.34"><defs><style>.cls-1{fill:#82728c;}.cls-2{fill:#fff;stroke:#fff;stroke-miterlimit:10;stroke-width:0.46px;}.cls-3{opacity:0.5;}.cls-4{fill:#684b75;}.cls-5{fill:#eaeaea;opacity:0.2;isolation:isolate;}</style></defs><g id="Layer_2" data-name="Layer 2"><g id="Layer_1-2" data-name="Layer 1"><rect class="cls-1" x="0.2" width="78.26" height="78.26" rx="3.31"/><path class="cls-2" d="M14.94,38.17h0a8.69,8.69,0,0,1,8.39-9h.26a9.15,9.15,0,0,1,6.73,2.77l-.92.94a8,8,0,0,0-5.83-2.54,7.4,7.4,0,0,0-7.31,7.47c0,.09,0,.17,0,.26h0a7.46,7.46,0,0,0,7.12,7.78h.2a7.93,7.93,0,0,0,6-2.7l.86.85a9.12,9.12,0,0,1-6.87,3,8.6,8.6,0,0,1-8.64-8.56Z"/><path class="cls-2" d="M31.94,44.25l.84-1A8.44,8.44,0,0,0,39,45.82c2.59,0,4.37-1.46,4.37-3.44h0c0-1.83-1-2.89-4.89-3.68-4.16-.84-5.84-2.25-5.84-4.87v0c0-2.57,2.35-4.55,5.57-4.55a8.64,8.64,0,0,1,5.93,2.1l-.82,1a7.4,7.4,0,0,0-5.16-2c-2.55,0-4.23,1.45-4.23,3.26h0c0,1.83.94,2.94,5,3.78s5.69,2.25,5.69,4.77h0c0,2.79-2.4,4.72-5.74,4.72A9.8,9.8,0,0,1,31.94,44.25Z"/><path class="cls-2" d="M48,29.47h1.21l7,10.23,6.94-10.23h1.21V46.8H63v-15l-6.85,10h-.1l-6.84-10v15H48Z"/><g class="cls-3"><path class="cls-4" d="M0,50.28C8.3,55.67,29.26,65.64,78.3,73.48V72.26C28.67,62.47,8.12,50.2,0,43.35Z"/></g><path class="cls-5" d="M3.56,78.34h71a3.71,3.71,0,0,0,3.7-3.71V73.48c-49-7.84-70-17.81-78.26-23.2V74.8a3.53,3.53,0,0,0,3.5,3.54Z"/></g></g></svg>