<svg xmlns="http://www.w3.org/2000/svg" viewBox="0 0 78.26 78.26"><defs><style>.cls-1{fill:#75b6c6;}.cls-2{fill:#fff;stroke:#fff;stroke-miterlimit:10;stroke-width:0.46px;}.cls-3{fill:#3295b7;opacity:0.5;}.cls-3,.cls-4{isolation:isolate;}.cls-4{fill:#eaeaea;opacity:0.2;}</style></defs><g id="Layer_2" data-name="Layer 2"><g id="Layer_1-2" data-name="Layer 1"><rect class="cls-1" width="78.26" height="78.26" rx="4.14"/><path class="cls-2" d="M13,38.17h0c0-4.67,3.39-9,8.55-9a9,9,0,0,1,6.33,2.28l-.84,1a7.79,7.79,0,0,0-5.56-2.07c-4.2,0-7.14,3.55-7.14,7.73h0c0,4.48,2.79,7.81,7.41,7.81a8.87,8.87,0,0,0,5.51-2v-5H21.49V37.8h7v6.67a10.39,10.39,0,0,1-6.8,2.6C16.25,47.07,13,43,13,38.17Z"/><path class="cls-2" d="M32.26,29.47h6.28c3.81,0,6.45,2,6.45,5.33h0c0,3.63-3.14,5.51-6.75,5.51H33.55V46.8H32.26Zm6,9.66c3.22,0,5.39-1.68,5.39-4.25h0c0-2.74-2.12-4.17-5.24-4.17H33.55v8.47Z"/><path class="cls-2" d="M47.88,29.47h1.21L56,39.7l7-10.23h1.2V46.8H62.91v-15l-6.85,10H56l-6.85-10v15H47.88Z"/><path class="cls-3" d="M.18,50.1c8.24,5.39,29.13,15.36,78,23.2V72.08C28.71,62.29,8.18,50,.18,43.17Z"/><path class="cls-4" d="M3.68,78.16H74.5a3.7,3.7,0,0,0,3.69-3.71h0V73.3C29.31,65.46,8.42,55.49.19,50.1V74.64A3.51,3.51,0,0,0,3.68,78.16Z"/></g></g></svg>