<svg xmlns="http://www.w3.org/2000/svg" viewBox="0 0 78.3 78.26"><defs><style>.cls-1{fill:#6d996d;}.cls-2{opacity:0.6;}.cls-3{fill:#527c52;}.cls-4{fill:#eaeaea;opacity:0.2;isolation:isolate;}.cls-5{fill:#fff;stroke:#fff;stroke-miterlimit:10;stroke-width:0.46px;}</style></defs><g id="Layer_2" data-name="Layer 2"><g id="Layer_1-2" data-name="Layer 1"><rect class="cls-1" x="0.04" width="78.26" height="78.26" rx="4.04"/><g class="cls-2"><path class="cls-3" d="M0,50.1C8.3,55.49,29.26,65.46,78.29,73.3V72.08C28.66,62.29,8.11,50,0,43.17Z"/></g><path class="cls-4" d="M3.55,78.16h71a3.7,3.7,0,0,0,3.7-3.7h0V73.3c-49-7.84-70-17.81-78.25-23.2V74.64a3.53,3.53,0,0,0,3.52,3.52Z"/><path class="cls-5" d="M12.37,38.17h0c0-4.67,3.38-9,8.55-9a9,9,0,0,1,6.33,2.28l-.84,1a7.79,7.79,0,0,0-5.57-2.07c-4.2,0-7.14,3.55-7.14,7.73h0c0,4.48,2.79,7.81,7.42,7.81a8.87,8.87,0,0,0,5.51-2v-5H20.84V37.8h7v6.67a10.36,10.36,0,0,1-6.79,2.6C15.6,47.07,12.37,43,12.37,38.17Z"/><path class="cls-5" d="M31.62,29.47h7.26a6.81,6.81,0,0,1,4.87,1.71,4.49,4.49,0,0,1,1.31,3.21h0c0,2.89-2.15,4.55-5.06,4.94l5.71,7.47H44.07l-5.51-7.2H32.9v7.2H31.62Zm7.11,9c2.9,0,5-1.46,5-4h0c0-2.32-1.83-3.78-5-3.78H32.9v7.78Z"/><path class="cls-5" d="M48.59,29.47H49.8l7,10.23,7-10.23h1.21V46.8H63.62v-15l-6.85,10h-.09l-6.85-10v15H48.59Z"/></g></g></svg>