<svg xmlns="http://www.w3.org/2000/svg" viewBox="0 0 78.26 78.26"><defs><style>.cls-1{fill:#d3a554;}.cls-2{fill:#fff;stroke:#fff;stroke-miterlimit:10;stroke-width:0.46px;}.cls-3{opacity:0.58;}.cls-4{fill:#b28846;}.cls-5{fill:#eaeaea;opacity:0.2;isolation:isolate;}</style></defs><g id="Layer_2" data-name="Layer 2"><g id="Layer_1-2" data-name="Layer 1"><rect class="cls-1" width="78.26" height="78.26" rx="3.39"/><path class="cls-2" d="M12.68,38.17h0c0-4.67,3.38-9,8.55-9a9,9,0,0,1,6.33,2.28l-.84,1a7.78,7.78,0,0,0-5.52-2.11c-4.21,0-7.15,3.55-7.15,7.73h0c0,4.48,2.8,7.81,7.42,7.81a8.87,8.87,0,0,0,5.51-2v-5H21.2V37.8h7v6.67a10.39,10.39,0,0,1-6.8,2.6C15.92,47.07,12.68,43,12.68,38.17Z"/><path class="cls-2" d="M36.2,30.66h-6V29.47H43.55v1.19h-6V46.8H36.2Z"/><path class="cls-2" d="M46.56,29.47h1.21l7,10.23,6.94-10.23h1.21V46.8H61.59v-15l-6.85,10h-.1l-6.85-10v15H46.56Z"/><g class="cls-3"><path class="cls-4" d="M0,50.1c8.26,5.39,29.2,15.36,78.26,23.2V72.08C28.63,62.29,8.08,50,0,43.17Z"/></g><path class="cls-5" d="M3.51,78.16H74.56a3.71,3.71,0,0,0,3.7-3.71V73.3c-49-7.84-70-17.81-78.26-23.2V74.64A3.52,3.52,0,0,0,3.51,78.16Z"/></g></g></svg>