<svg xmlns="http://www.w3.org/2000/svg" viewBox="0 0 78.51 78.26"><defs><style>.cls-1{fill:#6f84a3;}.cls-2{fill:#fff;stroke:#fff;stroke-miterlimit:10;stroke-width:0.46px;}.cls-3{fill:#627084;opacity:0.7;}.cls-3,.cls-4{isolation:isolate;}.cls-4{fill:#eaeaea;opacity:0.2;}</style></defs><g id="Layer_2" data-name="Layer 2"><g id="Layer_1-2" data-name="Layer 1"><rect class="cls-1" width="78.26" height="78.26" rx="3.22"/><path class="cls-2" d="M16.05,29.47h6.27c3.81,0,6.43,2,6.43,5.29h0c0,3.63-3.14,5.51-6.75,5.51H17.29V46.8H16.05Zm6,9.67c3.21,0,5.39-1.69,5.39-4.26h0c0-2.74-2.13-4.17-5.24-4.17H17.3v8.48Z"/><path class="cls-2" d="M31.62,29.47H43.93v1.19h-11v6.79h9.91v1.19H32.91v7H44.05V46.8H31.62Z"/><path class="cls-2" d="M47.29,29.47H48.5l7,10.23,6.94-10.23h1.22V46.8H62.32v-15l-6.85,10h-.1l-6.84-10v15H47.29Z"/><path class="cls-3" d="M.25,50.2c8.26,5.39,29.22,15.36,78.26,23.2V72.18C28.88,62.39,8.33,50.12.25,43.26Z"/><path class="cls-4" d="M3.77,78.25h71a3.7,3.7,0,0,0,3.7-3.7V73.4c-49-7.84-70-17.81-78.26-23.2V74.74a3.53,3.53,0,0,0,3.53,3.51Z"/></g></g></svg>