<svg xmlns="http://www.w3.org/2000/svg" viewBox="0 0 78.46 78.34"><defs><style>.cls-1{fill:#915069;}.cls-2{fill:#fff;stroke:#fff;stroke-miterlimit:10;stroke-width:0.46px;}.cls-3{opacity:0.4;}.cls-4{fill:#633d4b;}.cls-5{fill:#eaeaea;opacity:0.2;isolation:isolate;}</style></defs><g id="Layer_2" data-name="Layer 2"><g id="Layer_1-2" data-name="Layer 1"><rect class="cls-1" x="0.2" width="78.26" height="78.26" rx="3.22"/><path class="cls-2" d="M16.38,29.47h6.28c3.81,0,6.43,2,6.43,5.29h0c0,3.63-3.14,5.51-6.75,5.51H17.67V46.8H16.38Zm6,9.67c3.21,0,5.39-1.69,5.39-4.26h0c0-2.74-2.13-4.17-5.24-4.17H17.67v8.48Z"/><path class="cls-2" d="M32,29.47H44.2v1.19H33.28V37.8h9.79V39H33.28V46.8H32Z"/><path class="cls-2" d="M47.32,29.47h1.21l7,10.23,6.94-10.23h1.21V46.8H62.35v-15l-6.85,10h-.1l-6.84-10v15H47.32Z"/><g class="cls-3"><path class="cls-4" d="M0,50.28c8.26,5.39,29.22,15.36,78.25,23.2V72.26C28.66,62.47,8.11,50.2,0,43.35Z"/></g><path class="cls-5" d="M3.55,78.34h71a3.71,3.71,0,0,0,3.7-3.71V73.48c-49-7.84-70-17.81-78.25-23.2V74.8a3.51,3.51,0,0,0,3.48,3.54Z"/></g></g></svg>